<?xml version="1.0" standalone="no"?>
<!DOCTYPE svg PUBLIC "-//W3C//DTD SVG 20010904//EN"
 "http://www.w3.org/TR/2001/REC-SVG-20010904/DTD/svg10.dtd">
<svg version="1.0" xmlns="http://www.w3.org/2000/svg"
 width="256.000000pt" height="256.000000pt" viewBox="0 0 256.000000 256.000000"
 preserveAspectRatio="xMidYMid meet">
<metadata>
Created by potrace 1.11, written by Peter Selinger 2001-2013
</metadata>
<g transform="translate(0.000000,256.000000) scale(0.100000,-0.100000)"
fill="#000000" stroke="none">
<path d="M1218 2499 c-43 -12 -121 -51 -225 -112 -87 -52 -259 -154 -383 -227
-124 -73 -279 -164 -345 -203 -126 -73 -173 -110 -207 -165 -45 -73 -31 -173
33 -245 l38 -44 -26 -29 c-55 -63 -72 -158 -39 -221 8 -17 12 -34 8 -38 -4 -3
0 -5 8 -3 9 2 14 -4 14 -14 -1 -10 4 -14 11 -11 8 2 18 -4 24 -15 8 -16 5 -24
-15 -43 -81 -76 -88 -217 -15 -283 11 -10 18 -24 14 -30 -3 -6 -3 -8 2 -4 10
9 87 -51 80 -62 -3 -5 0 -12 6 -16 8 -5 9 -3 4 6 -5 8 -3 11 6 8 8 -3 12 -12
11 -19 -2 -8 0 -11 4 -7 6 7 53 -26 101 -71 12 -12 25 -21 28 -21 13 0 34 -28
27 -35 -4 -5 -2 -5 4 -2 5 3 27 -9 46 -26 20 -18 48 -40 62 -51 14 -10 23 -23
20 -28 -3 -4 0 -7 8 -6 7 2 12 -3 10 -10 -1 -8 2 -11 8 -7 12 8 91 -55 84 -67
-3 -5 -2 -7 3 -6 14 4 54 -23 48 -33 -4 -5 -3 -8 2 -7 14 4 63 -34 56 -45 -3
-5 -2 -7 4 -4 6 4 24 -6 41 -21 51 -44 75 -62 85 -62 5 0 7 -7 4 -14 -4 -10
-1 -13 7 -10 8 3 21 -5 30 -18 9 -12 16 -19 16 -14 0 5 8 0 18 -11 9 -11 27
-23 40 -27 12 -4 19 -12 16 -18 -4 -6 -3 -8 3 -5 10 6 97 -16 89 -23 -2 -3 16
-6 41 -7 25 -1 50 -8 54 -15 7 -11 9 -11 9 0 0 10 13 13 49 10 27 -1 47 0 45
3 -5 9 75 21 88 13 6 -4 8 -3 5 3 -4 6 13 18 37 27 25 9 50 24 56 32 15 17 34
19 24 2 -4 -7 -3 -8 5 -4 6 4 9 11 6 16 -5 9 33 26 48 22 5 -1 6 1 3 6 -3 5
13 19 34 31 22 12 40 19 40 15 0 -4 6 -1 13 8 6 9 35 28 62 43 119 66 140 79
143 87 2 4 9 8 15 8 7 0 23 9 37 20 28 22 45 26 34 8 -4 -7 -3 -8 5 -4 6 4 9
11 6 16 -7 11 24 22 37 13 6 -3 8 -1 5 4 -8 12 210 146 223 138 5 -3 14 4 20
15 6 11 15 20 21 20 6 0 7 -5 3 -12 -5 -7 -3 -8 5 -4 7 5 10 11 7 14 -10 9 54
43 67 36 7 -4 9 -3 4 1 -9 11 80 68 93 60 6 -3 7 1 4 9 -3 9 2 17 15 21 12 3
21 13 21 21 0 9 5 12 13 8 6 -4 9 -3 4 1 -4 5 0 19 8 31 19 29 25 99 11 142
-5 19 -27 53 -49 78 -36 41 -42 72 -10 60 8 -3 11 -1 8 5 -9 13 14 41 27 33 5
-3 8 0 7 7 -1 8 4 28 11 44 29 67 12 145 -46 214 l-26 31 26 21 c35 28 72 104
75 156 3 48 -24 115 -61 153 -26 27 -47 44 -233 196 -66 54 -122 101 -125 104
-3 3 -52 44 -110 90 -58 47 -107 87 -110 90 -24 27 -291 235 -319 249 -94 48
-242 61 -353 30z"/>
</g>
</svg>
